# xmcd
#
# Track frame offsets: 
#        150
#        16085
#        20787
#        27800
#        43032
#        51777
#        61027
#        72962
#        83825
#        92647
#        102560
#        119102
#        129845
#        137790
#        144130
#        157610
#        165972
#        173612
#        182010
#        195900
#
# Disc length: 2712 seconds
#
# Revision: 3
# Processed by: cddbd v1.5PL3 Copyright (c) Steve Scherf et al.
# Submitted via: ExactAudioCopy v0.95a3
#
DISCID=f50a9614
DTITLE=HERB OHTA - LEGENDARY UKULELE
DYEAR=1998
DGENRE=Ukulele
TTITLE0=Stardust
TTITLE1=Nani Waimea
TTITLE2=Invitation
TTITLE3=Malaguena
TTITLE4=Sakura
TTITLE5=Sabre Dance
TTITLE6=But Beautiful
TTITLE7=La Cumparsita
TTITLE8=Jesusita En Chihuahua
TTITLE9=Tropical
TTITLE10=Music Maestro Please -Out Of Nowhere
TTITLE11=Little Rock Get Away -Josephine
TTITLE12=Intermezzo
TTITLE13=Meditation
TTITLE14=Clair de Lune
TTITLE15=I'm In The Mood For Love
TTITLE16=Lover -Tribute to PERRY BOTKIN Jr.
TTITLE17=Just One Of Those Things
TTITLE18=Slaughter On 10th Avenue
TTITLE19=Tico Tico
EXTD=
EXTT0=
EXTT1=
EXTT2=
EXTT3=
EXTT4=
EXTT5=
EXTT6=
EXTT7=
EXTT8=
EXTT9=
EXTT10=
EXTT11=
EXTT12=
EXTT13=
EXTT14=
EXTT15=
EXTT16=
EXTT17=
EXTT18=
EXTT19=
PLAYORDER=
